<svg aria-hidden="true" style="position: absolute; width: 0; height: 0; overflow: hidden;" version="1.1" xmlns="http://www.w3.org/2000/svg" xmlns:xlink="http://www.w3.org/1999/xlink">
<defs>
<symbol id="logo" viewBox="0 0 85 32">
<path fill="none" stroke="#fff" style="stroke: var(--color1, #fff)" stroke-linejoin="round" stroke-linecap="round" stroke-miterlimit="4" stroke-width="1.2603" d="M14.672 4.656c1.007-0.835 2.746-1.249 4.068-0.715 4.27 1.725 1.935 7.529-2.345 6.953-2.885-0.388-2.726-5.722-0.482-6.628"></path>
<path fill="none" stroke="#fff" style="stroke: var(--color1, #fff)" stroke-linejoin="round" stroke-linecap="round" stroke-miterlimit="4" stroke-width="1.2603" d="M12.424 17.478c-0.019 0.2-0.188 0.299-0.387 0.318-2.892 0.276-1.36-7.576 0.94-7.217 0.63 0.098 0.883 0.275 1.192 0.652"></path>
<path fill="none" stroke="#fff" style="stroke: var(--color1, #fff)" stroke-linejoin="round" stroke-linecap="round" stroke-miterlimit="4" stroke-width="1.2603" d="M16.685 12.033c0.296 1.36 0.325 2.743 0.267 4.129-0.060 1.435-0.228 2.862-0.341 4.293"></path>
<path fill="none" stroke="#fff" style="stroke: var(--color1, #fff)" stroke-linejoin="round" stroke-linecap="round" stroke-miterlimit="4" stroke-width="1.2603" d="M12.746 20.638c0-0.798-0.369-3.718 0-5.478 0.215-1.024 0.637-2.163 1.118-3.035"></path>
<path fill="none" stroke="#fff" style="stroke: var(--color1, #fff)" stroke-linejoin="round" stroke-linecap="round" stroke-miterlimit="4" stroke-width="1.2603" d="M16.884 27.869c-0.212 0.008-0.636-0.146-0.633-0.322 0.008-0.436 0.019-0.263 0.031-0.699 0.019-0.737 0.033-2.425 0.055-3.070 0.011-0.315-0.040-3.181 0-3.495 0.039-0.309-0.030-0.374-0.346-0.362-0.382 0.015-1.674-0.146-1.763-0.161-0.579-0.098-0.389-0.037-0.347 0.535 0.068 0.914-0.179 2.747-0.143 3.661 0.048 1.23-0.153 2.257 0 3.537 0.032 0.268 0.192 0.223 0.49 0.292"></path>
<path fill="#fff" style="fill: var(--color1, #fff)" d="M25.673 28.062v-1.827l-0.047-0.299v-3.056c0-0.704-0.2-1.245-0.599-1.623-0.389-0.378-0.971-0.567-1.749-0.567-0.536 0-1.045 0.089-1.528 0.268s-0.893 0.415-1.229 0.709l-0.504-0.835c0.42-0.357 0.924-0.63 1.512-0.819 0.588-0.2 1.208-0.299 1.859-0.299 1.071 0 1.896 0.268 2.473 0.803 0.588 0.525 0.882 1.329 0.882 2.41v5.136h-1.071zM22.822 28.14c-0.62 0-1.161-0.1-1.623-0.299-0.452-0.21-0.798-0.494-1.040-0.851-0.242-0.368-0.362-0.788-0.362-1.26 0-0.431 0.1-0.819 0.299-1.166 0.21-0.357 0.546-0.641 1.008-0.851 0.473-0.221 1.103-0.331 1.89-0.331h2.851v0.835h-2.82c-0.798 0-1.355 0.142-1.67 0.425-0.305 0.284-0.457 0.635-0.457 1.055 0 0.473 0.184 0.851 0.551 1.134s0.882 0.425 1.544 0.425c0.63 0 1.171-0.142 1.623-0.425 0.462-0.294 0.798-0.714 1.008-1.26l0.252 0.772c-0.21 0.546-0.578 0.982-1.103 1.308-0.515 0.326-1.166 0.488-1.953 0.488zM33.217 28.14c-0.819 0-1.554-0.179-2.206-0.536-0.641-0.368-1.145-0.866-1.512-1.497-0.368-0.641-0.551-1.371-0.551-2.19 0-0.83 0.184-1.56 0.551-2.19s0.872-1.124 1.512-1.481c0.651-0.357 1.386-0.536 2.206-0.536 0.704 0 1.339 0.137 1.906 0.41s1.014 0.683 1.339 1.229l-0.835 0.567c-0.284-0.42-0.635-0.73-1.056-0.929s-0.877-0.299-1.371-0.299c-0.588 0-1.119 0.137-1.591 0.41-0.473 0.263-0.845 0.635-1.119 1.119s-0.41 1.050-0.41 1.701 0.137 1.218 0.41 1.701c0.273 0.483 0.646 0.861 1.119 1.134 0.473 0.263 1.003 0.394 1.591 0.394 0.494 0 0.95-0.1 1.371-0.299s0.772-0.504 1.056-0.914l0.835 0.567c-0.326 0.536-0.772 0.945-1.339 1.229-0.567 0.273-1.203 0.41-1.906 0.41zM39.419 25.919l0.032-1.434 5.151-4.695h1.371l-3.639 3.482-0.63 0.536-2.284 2.111zM38.537 28.062v-11.689h1.119v11.689h-1.119zM44.948 28.062l-3.45-4.301 0.725-0.866 4.096 5.167h-1.371zM52.144 28.14c-0.714 0-1.36-0.163-1.938-0.488-0.577-0.336-1.040-0.814-1.386-1.434-0.336-0.63-0.504-1.397-0.504-2.3s0.168-1.665 0.504-2.284c0.336-0.63 0.793-1.108 1.371-1.434s1.229-0.488 1.953-0.488c0.788 0 1.491 0.179 2.111 0.536 0.63 0.347 1.124 0.84 1.481 1.481 0.357 0.63 0.536 1.36 0.536 2.19 0 0.84-0.179 1.575-0.536 2.206s-0.851 1.124-1.481 1.481c-0.62 0.357-1.323 0.536-2.111 0.536zM47.875 31.118v-11.327h1.071v2.489l-0.11 1.654 0.158 1.67v5.514h-1.119zM52.065 27.148c0.588 0 1.113-0.131 1.575-0.394 0.462-0.273 0.83-0.651 1.103-1.134 0.273-0.494 0.41-1.061 0.41-1.701s-0.136-1.203-0.41-1.686c-0.273-0.483-0.641-0.861-1.103-1.134s-0.987-0.41-1.575-0.41c-0.588 0-1.119 0.137-1.591 0.41-0.462 0.273-0.83 0.651-1.103 1.134-0.263 0.483-0.394 1.045-0.394 1.686s0.131 1.208 0.394 1.701c0.273 0.483 0.641 0.861 1.103 1.134 0.473 0.263 1.003 0.394 1.591 0.394zM63.689 28.062v-1.827l-0.047-0.299v-3.056c0-0.704-0.199-1.245-0.599-1.623-0.388-0.378-0.971-0.567-1.749-0.567-0.536 0-1.045 0.089-1.528 0.268s-0.893 0.415-1.229 0.709l-0.504-0.835c0.42-0.357 0.924-0.63 1.512-0.819 0.588-0.2 1.208-0.299 1.859-0.299 1.071 0 1.896 0.268 2.473 0.803 0.588 0.525 0.882 1.329 0.882 2.41v5.136h-1.071zM60.837 28.14c-0.62 0-1.16-0.1-1.623-0.299-0.451-0.21-0.798-0.494-1.040-0.851-0.242-0.368-0.362-0.788-0.362-1.26 0-0.431 0.1-0.819 0.299-1.166 0.21-0.357 0.546-0.641 1.008-0.851 0.473-0.221 1.103-0.331 1.89-0.331h2.851v0.835h-2.82c-0.798 0-1.355 0.142-1.67 0.425-0.305 0.284-0.457 0.635-0.457 1.055 0 0.473 0.184 0.851 0.551 1.134s0.882 0.425 1.544 0.425c0.63 0 1.171-0.142 1.623-0.425 0.462-0.294 0.798-0.714 1.008-1.26l0.252 0.772c-0.21 0.546-0.577 0.982-1.103 1.308-0.514 0.326-1.166 0.488-1.953 0.488zM71.233 28.14c-0.819 0-1.554-0.179-2.206-0.536-0.641-0.368-1.145-0.866-1.512-1.497-0.368-0.641-0.551-1.371-0.551-2.19 0-0.83 0.184-1.56 0.551-2.19s0.872-1.124 1.512-1.481c0.651-0.357 1.386-0.536 2.206-0.536 0.704 0 1.339 0.137 1.906 0.41s1.014 0.683 1.339 1.229l-0.835 0.567c-0.284-0.42-0.636-0.73-1.055-0.929s-0.877-0.299-1.371-0.299c-0.588 0-1.119 0.137-1.591 0.41-0.473 0.263-0.845 0.635-1.119 1.119s-0.41 1.050-0.41 1.701c0 0.651 0.136 1.218 0.41 1.701s0.646 0.861 1.119 1.134c0.473 0.263 1.003 0.394 1.591 0.394 0.494 0 0.951-0.1 1.371-0.299s0.772-0.504 1.055-0.914l0.835 0.567c-0.325 0.536-0.772 0.945-1.339 1.229-0.567 0.273-1.203 0.41-1.906 0.41zM77.434 25.919l0.031-1.434 5.151-4.695h1.371l-3.639 3.482-0.63 0.536-2.284 2.111zM76.552 28.062v-11.689h1.119v11.689h-1.119zM82.964 28.062l-3.45-4.301 0.725-0.866 4.096 5.167h-1.371z"></path>
</symbol>
<symbol id="copy" viewBox="0 0 32 32">
<path d="M11.563 9c-1.415 0-2.563 1.147-2.563 2.563v13.875c0 1.415 1.147 2.563 2.563 2.563h13.875c1.415 0 2.563-1.147 2.563-2.563v-13.875c0-1.415-1.147-2.563-2.563-2.563h-13.875zM7 11.563c0-2.52 2.043-4.563 4.563-4.563h13.875c2.52 0 4.563 2.043 4.563 4.563v13.875c0 2.52-2.043 4.563-4.563 4.563h-13.875c-2.52 0-4.563-2.043-4.563-4.563v-13.875z"></path>
<path d="M6.997 2h13.506c1.192 0.003 2.334 0.478 3.176 1.321s1.318 1.985 1.321 3.176l-0 0.024-0.031 1.5c-0.011 0.552-0.468 0.99-1.021 0.979s-0.99-0.468-0.979-1.021l0.031-1.487c-0.005-0.659-0.269-1.29-0.735-1.757-0.469-0.469-1.104-0.733-1.766-0.735h-13.497c-0.795 0.003-1.557 0.32-2.119 0.882s-0.879 1.324-0.882 2.119v13.497c0.002 0.663 0.266 1.298 0.735 1.766s1.104 0.733 1.766 0.735h1.498c0.552 0 1 0.448 1 1s-0.448 1-1 1h-1.503c-1.192-0.003-2.334-0.478-3.176-1.321s-1.318-1.985-1.321-3.176v-13.506c0.004-1.324 0.532-2.593 1.468-3.529s2.205-1.464 3.529-1.468z"></path>
</symbol>
<symbol id="login" viewBox="0 0 32 32">
<path d="M10 8.5v6.5h9.586l-3.293-3.293c-0.18-0.189-0.278-0.441-0.275-0.702s0.108-0.51 0.293-0.694c0.184-0.184 0.434-0.289 0.694-0.293s0.513 0.095 0.702 0.275l5 5c0.187 0.188 0.293 0.442 0.293 0.707s-0.105 0.519-0.293 0.707l-5 5c-0.189 0.18-0.441 0.278-0.702 0.275s-0.51-0.108-0.694-0.293-0.289-0.434-0.293-0.694c-0.003-0.261 0.095-0.513 0.275-0.702l3.293-3.293h-9.586v6.5c0.001 0.928 0.37 1.818 1.026 2.474s1.546 1.025 2.474 1.026h13c0.928-0.001 1.818-0.37 2.474-1.026s1.025-1.546 1.026-2.474v-15c-0.001-0.928-0.37-1.818-1.026-2.474s-1.546-1.025-2.474-1.026h-13c-0.928 0.001-1.818 0.37-2.474 1.026s-1.025 1.546-1.026 2.474zM3 15c-0.265 0-0.52 0.105-0.707 0.293s-0.293 0.442-0.293 0.707 0.105 0.52 0.293 0.707c0.188 0.188 0.442 0.293 0.707 0.293h7v-2h-7z"></path>
</symbol>
</defs>
</svg>
