<svg aria-hidden="true" style="position:absolute;width:0;height:0;overflow:hidden" xmlns="http://www.w3.org/2000/svg">
  <defs>
    <symbol id="logo" viewBox="0 0 85 32">
      <path fill="none" stroke="#fff" style="stroke:var(--color1, #fff)" stroke-linejoin="round" stroke-linecap="round" stroke-width="1.26" d="M14.67 4.66c1-.84 2.75-1.25 4.07-.72 4.27 1.73 1.94 7.53-2.34 6.95-2.89-.38-2.73-5.72-.49-6.62M12.42 17.48c-.02.2-.18.3-.38.32-2.9.27-1.36-7.58.94-7.22.63.1.88.27 1.19.65M16.68 12.03c.3 1.36.33 2.75.27 4.13-.06 1.44-.23 2.86-.34 4.3"/>
      <path fill="none" stroke="#fff" style="stroke:var(--color1, #fff)" stroke-linejoin="round" stroke-linecap="round" stroke-width="1.26" d="M12.75 20.64c0-.8-.37-3.72 0-5.48a11.6 11.6 0 0 1 1.11-3.03M16.88 27.87c-.2 0-.63-.15-.63-.32 0-.44.02-.27.03-.7.02-.74.03-2.43.06-3.07 0-.32-.04-3.18 0-3.5.04-.3-.03-.37-.35-.36-.38.02-1.67-.15-1.76-.16-.58-.1-.4-.04-.35.53.07.92-.18 2.75-.14 3.67.05 1.23-.16 2.25 0 3.53.03.27.19.23.49.3"/>
      <path fill="#fff" style="fill:var(--color1, #fff)" d="M25.67 28.06v-1.82l-.04-.3v-3.06c0-.7-.2-1.25-.6-1.62-.4-.38-.97-.57-1.75-.57a4.36 4.36 0 0 0-2.76.98l-.5-.84c.42-.36.92-.63 1.5-.82.6-.2 1.22-.3 1.87-.3 1.07 0 1.9.27 2.47.8.59.53.88 1.34.88 2.42v5.13h-1.07zm-2.85.08c-.62 0-1.16-.1-1.62-.3-.45-.2-.8-.5-1.04-.85a2.24 2.24 0 0 1-.36-1.26c0-.43.1-.82.3-1.17.2-.35.54-.64 1-.85.48-.22 1.1-.33 1.9-.33h2.84v.84h-2.82c-.8 0-1.35.14-1.67.42-.3.29-.45.64-.45 1.06 0 .47.18.85.55 1.13s.88.43 1.54.43a3 3 0 0 0 1.63-.43c.46-.3.8-.71 1-1.26l.26.77c-.21.55-.58.99-1.1 1.31-.52.33-1.17.49-1.96.49zm10.4 0c-.82 0-1.56-.18-2.2-.54a4.05 4.05 0 0 1-2.07-3.68c0-.83.18-1.56.55-2.2s.87-1.12 1.51-1.47a4.51 4.51 0 0 1 2.2-.54c.71 0 1.35.14 1.91.41s1.02.68 1.34 1.23l-.83.57c-.29-.42-.64-.73-1.06-.93s-.88-.3-1.37-.3c-.59 0-1.12.13-1.6.4-.46.27-.84.64-1.11 1.13s-.41 1.05-.41 1.7.14 1.22.41 1.7a2.97 2.97 0 0 0 2.71 1.53c.5 0 .95-.1 1.37-.3s.77-.5 1.06-.92l.83.57c-.32.54-.77.95-1.34 1.23-.56.27-1.2.41-1.9.41zm6.2-2.22.03-1.44 5.15-4.69h1.37l-3.64 3.48-.63.54-2.28 2.1zm-.88 2.14V16.37h1.12v11.7h-1.12zm6.4 0-3.44-4.3.72-.86 4.1 5.16h-1.37zm7.2.08c-.71 0-1.36-.16-1.93-.49a3.71 3.71 0 0 1-1.39-1.43c-.34-.63-.5-1.4-.5-2.3s.16-1.67.5-2.29c.34-.63.8-1.1 1.37-1.43s1.23-.49 1.95-.49c.8 0 1.5.18 2.11.54.63.35 1.13.84 1.49 1.48.35.63.53 1.36.53 2.19 0 .84-.18 1.57-.53 2.2s-.86 1.13-1.49 1.49c-.62.35-1.32.53-2.1.53zm-4.27 2.98V19.79h1.08v2.49l-.11 1.65.15 1.67v5.52h-1.12zm4.2-3.97c.58 0 1.1-.13 1.57-.4.46-.27.83-.65 1.1-1.13.28-.5.41-1.06.41-1.7s-.13-1.2-.4-1.69a3.01 3.01 0 0 0-2.69-1.54c-.58 0-1.11.14-1.59.4-.46.28-.83.66-1.1 1.14-.26.49-.4 1.05-.4 1.69s.14 1.2.4 1.7c.27.48.64.86 1.1 1.13.48.27 1 .4 1.6.4zm11.62.91v-1.82l-.05-.3v-3.06c0-.7-.2-1.25-.6-1.62-.38-.38-.97-.57-1.75-.57a4.36 4.36 0 0 0-2.75.98l-.5-.84c.41-.36.92-.63 1.5-.82.6-.2 1.21-.3 1.86-.3 1.08 0 1.9.27 2.48.8.59.53.88 1.34.88 2.42v5.13h-1.07zm-2.85.08c-.62 0-1.16-.1-1.63-.3-.45-.2-.8-.5-1.04-.85a2.24 2.24 0 0 1-.36-1.26c0-.43.1-.82.3-1.17.21-.35.55-.64 1-.85.48-.22 1.11-.33 1.9-.33h2.85v.84h-2.82c-.8 0-1.35.14-1.67.42-.3.29-.46.64-.46 1.06 0 .47.19.85.55 1.13s.89.43 1.55.43a3 3 0 0 0 1.62-.43c.46-.3.8-.71 1-1.26l.26.77c-.2.55-.58.99-1.1 1.31-.52.33-1.17.49-1.95.49zm10.4 0c-.83 0-1.56-.18-2.21-.54a4.05 4.05 0 0 1-2.07-3.68c0-.83.19-1.56.56-2.2s.87-1.12 1.5-1.47a4.51 4.51 0 0 1 2.21-.54c.7 0 1.34.14 1.9.41s1.02.68 1.35 1.23l-.84.57c-.28-.42-.63-.73-1.05-.93s-.88-.3-1.37-.3c-.6 0-1.12.13-1.6.4-.47.27-.84.64-1.11 1.13s-.41 1.05-.41 1.7c0 .65.13 1.22.4 1.7a2.97 2.97 0 0 0 2.72 1.53c.5 0 .95-.1 1.37-.3s.77-.5 1.05-.92l.84.57c-.33.54-.77.95-1.34 1.23-.57.27-1.2.41-1.9.41zm6.2-2.22.02-1.44 5.16-4.69h1.37l-3.64 3.48-.63.54-2.29 2.1zm-.89 2.14V16.37h1.12v11.7h-1.12zm6.41 0-3.45-4.3.73-.86 4.1 5.16h-1.38z"/>
    </symbol>
    <symbol id="close" viewBox="0 0 32 32">
      <path stroke-linejoin="round" stroke-linecap="round" stroke-width=".56" d="m18.14 21-.45-3.2c-1.5.49-2.82.14-4.22 0M18.14 22.57c-1.47.25-3.28.66-4.67.3"/>
      <path stroke-linejoin="round" stroke-linecap="round" stroke-width=".64" d="M19.47 26.98c-1.86.15-5.54 1.33-7.15.26-.1-.06-2.48-13.13 1.98-14.24M18.36 13.11c2.37 1.54 2.09 9.59 2.09 13.35M14.13 11.89c.12-2.42.01-4.76.34-7.13M15.13 4.58c.53.16 1.95-.48 2.4-.18.44.29-.06 6.29.27 8.6"/>
    </symbol>
    <symbol id="open" viewBox="0 0 32 32">
      <path stroke-linejoin="round" stroke-linecap="round" stroke-width=".64" d="M9.75 26.64c-2.42-.73-4.32-3.22-4.04-3.67.62-1.02 1.9-3.35 5.03-6.2 1.46-1.32 3.36-1.69 4.93-2.52.9-.46 2.27-2.59 3.15-2.94.53-.21 2 1.18 1.6 1.67-3.63 4.5-.95 2.34-4.18 7.9-1.13 1.94-4.04 4.53-5.65 5.76"/>
      <path stroke-linejoin="round" stroke-linecap="round" stroke-width=".56" d="M17.71 14.96c-.48-.2-.82-.63-1.11-1"/>
      <path stroke-linejoin="round" stroke-linecap="round" stroke-width=".64" d="M24.12 8.73c-.39-.34-.84-.65-.84-.9-.01-.35.6-.9 1.12-1.55"/>
      <path stroke-linejoin="round" stroke-linecap="round" stroke-width=".64" d="M24.29 6.08c.25-2 3.29.3 1.38.97-.34.9-.62 1.35-.84 1.35"/>
    </symbol>
    <symbol id="crab" viewBox="0 0 32 32">
      <path stroke-linejoin="round" stroke-linecap="round" stroke-width=".64" d="M9.11 11.38c-2.45-1.37-1.58-6.2.25-2.61M9.5 8.4c1.59-3.65 2.6 2.12.12 2.98M9.36 11.65c1 1.13 1.79 2.4 2.83 3.5M12.66 15.27c1.64.5 4.59-1.02 6.05-.05.31.2.25 2.2.27 2.5.09 1.6.76 4.39 0 5.9-.6 1.21-6.68 1.86-7.08.45-.41-1.44-.33-3.22-.58-4.71-.3-1.87-.9-3.29.94-4M20.69 12.2c-.56.94-1.15 1.94-1.76 2.82M20.85 11.52c-.1-1.35-.03-3.06 1.32-3.51M22.58 8.6c-.01 1.75 1.3.49 2.16-.05"/>
      <path stroke-linejoin="round" stroke-linecap="round" stroke-width=".64" d="M24.74 8.41c-.07 2.55-1.58 3.11-3.78 3.38M10.84 15.87c-1.71-1.69-2.37-.03-3.64 1.45M10.98 18.68c-1.4-.86-2.94 2.24-2.97 2.28M11.11 22.11c-1.35-.72-1.73.58-2.56 1.55M19.2 16.78c1.4-2.28 2.19-2.28 4.05-.33M19.2 19.66c1.4-2.48 2.3-1.98 3.78.09M19.75 21.9c1.49-1.43 2.01-.83 2.96.81M17.05 11.38c1.03 1.4-1.32 1.77-.26.14M14.3 11.65c1.49.94-1.23 1.54-.28 0M14.26 13.81c.04.26.03.54.04.8M16.85 13.68c.02.4 0 .81-.02 1.2"/>
    </symbol>
    <symbol id="koi" viewBox="0 0 32 32">
      <path stroke-linejoin="round" stroke-linecap="round" stroke-width=".64" d="M12.33 27.84c.56-2.2-2.53-5.31-3.47-7.65-1.23-3.1-.58-5.73 1.44-8.65.39-.56 1.33-1.72 2.74-1.52 1.68.25 1.5 1.57 1.58 2.3.34 3.14-7.16 9.48-1.35 11.83.79.32 1.47.66 2.41.82"/>
      <path stroke-linejoin="round" stroke-linecap="round" stroke-width=".64" d="M15.6 24.98c-.79.24-2.21.16-2.88-.18"/>
      <path stroke-linejoin="round" stroke-linecap="round" stroke-width=".64" d="M12.77 24.72c1.44.99.3 2.52-.93 3.36M15.68 6.33c6.3 1.92 6.38 7 3.96 10.41-.7.97-3.81 3.82-1.9 5.3 1.5 1.16 3.84-.77 4.41-1.32 2.82-2.71 2.92-6.7 1.56-9.7-1.15-2.51-5.67-4.35-5.07-7.1 0 0-.48 1.73-.8 1.73-.16.23-2.16.68-2.16.68zM7.83 14.7c-.3.08-.63.11-.92.2-.54.14-1.56 1.3-.6.96.94-.33.94-1.1 1.93-1.38M13.12 16.16c2.1 2.07-.24 2.09.03.3"/>
      <path stroke-linejoin="round" stroke-linecap="round" stroke-width=".64" d="M18.42 16.24c-.4-.27-1.2-5 .26-2.91.31.45.44.93.76 1.38M25.84 15.46c1.84-2.77 1.38.64-.16 1.66"/>
    </symbol>
    <symbol id="monkey" viewBox="0 0 32 32">
      <path stroke-linejoin="round" stroke-linecap="round" stroke-width=".64" d="M11.63 9.9c-.25-3.24 1.4-1.82 2.61-1.23.25.12 1.54-1.85 2.6-1.1.89.6.7 1.2.47 1.78m.15 1.75c0 .4 3.86 1.67-2.03 3.83-2.18.8-6.32-.87-4.3-3.49M13.42 10.48v-.14M15.24 10.48v-.14"/>
      <path stroke-linejoin="round" stroke-linecap="round" stroke-width=".64" d="M15.63 12.8c-.43.55-2.03.68-2.5 0M12.12 7.85c1.43-1.22 3.06-1.4 4.58-.4M10.31 11.48c-1.97-.16-.73-2.78.92-2M17.64 9.3c2.19-1.2 2.4 1.44.13 1.97M4.4 15.15c2.14-.86.94.68 2.42 1.88.94.75 4.32-.85 4.4-.74.15.23-.43 2.72-.4 3.18.23 3.15 3.21 6.1.17 5.84M24.6 14.47c-1.8.14-1.65 2.75-2.8 3.6-1.06.8-3.07-3.47-4.25-2.3-.42.4.42 4.46.34 5.17-.25 2.08-3.05 5.61-.17 4.66"/>
      <path stroke-linejoin="round" stroke-linecap="round" stroke-width=".64" d="M17.83 21.51c.75 4.84 12.84 3.23 9.03-.68-1.35-1.39-5.69-.7-3.73 1.3M12.46 22.5c1.69.6 3.27-.03 4.94-.18"/>
    </symbol>
  </defs>
</svg>