<svg width="172" height="65" viewBox="0 0 172 65" fill="none" xmlns="http://www.w3.org/2000/svg">
<g clip-path="url(#clip0_11_168)">
<path d="M29.8024 9.45735C31.8477 7.76215 35.3794 6.92052 38.0662 8.0058C46.7406 11.5093 41.997 23.2989 33.3038 22.1283C27.4443 21.3397 27.767 10.506 32.3237 8.66549" stroke="white" stroke-opacity="0.9" stroke-width="2.56" stroke-linecap="round" stroke-linejoin="round"/>
<path d="M25.2364 35.5016C25.1986 35.9076 24.8535 36.108 24.4493 36.1469C18.5744 36.7084 21.686 20.7591 26.3581 21.4874C27.6376 21.6869 28.152 22.0456 28.7794 22.8122" stroke="white" stroke-opacity="0.9" stroke-width="2.56" stroke-linecap="round" stroke-linejoin="round"/>
<path d="M33.8907 24.4412C34.4928 27.2045 34.5502 30.0127 34.432 32.8288C34.3098 35.7445 33.9694 38.6416 33.7384 41.5482" stroke="white" stroke-opacity="0.9" stroke-width="2.56" stroke-linecap="round" stroke-linejoin="round"/>
<path d="M25.89 41.92C25.89 40.2986 25.1402 34.3669 25.89 30.7924C26.3263 28.7125 27.1833 26.3996 28.1601 24.6271" stroke="white" stroke-opacity="0.9" stroke-width="2.56" stroke-linecap="round" stroke-linejoin="round"/>
<path d="M34.2962 56.6091C33.8658 56.6256 33.0042 56.3129 33.0111 55.9552C33.0278 55.0696 33.0503 55.4217 33.074 54.5361C33.1135 53.0395 33.1409 49.6096 33.1858 48.2995C33.2076 47.6595 33.1038 41.8382 33.1858 41.2001C33.266 40.5718 33.1254 40.4397 32.4827 40.4646C31.7073 40.4949 29.083 40.1685 28.9025 40.1381C27.7254 39.9395 28.1118 40.0622 28.1983 41.2251C28.3362 43.0824 27.8342 46.8041 27.9071 48.6608C28.0049 51.1585 27.5961 53.2449 27.9071 55.8454C27.9723 56.3897 28.2964 56.2976 28.9025 56.4382" stroke="white" stroke-opacity="0.9" stroke-width="2.56" stroke-linecap="round" stroke-linejoin="round"/>
</g>
<path d="M52.1491 57V53.288L52.0531 52.68V46.472C52.0531 45.0427 51.6478 43.944 50.8371 43.176C50.0478 42.408 48.8638 42.024 47.2851 42.024C46.1971 42.024 45.1625 42.2053 44.1811 42.568C43.1998 42.9307 42.3678 43.4107 41.6851 44.008L40.6611 42.312C41.5145 41.5867 42.5385 41.032 43.7331 40.648C44.9278 40.2427 46.1865 40.04 47.5091 40.04C49.6851 40.04 51.3598 40.584 52.5331 41.672C53.7278 42.7387 54.3251 44.3707 54.3251 46.568V57H52.1491ZM46.3571 57.16C45.0985 57.16 43.9998 56.9573 43.0611 56.552C42.1438 56.1253 41.4398 55.5493 40.9491 54.824C40.4585 54.0773 40.2131 53.224 40.2131 52.264C40.2131 51.3893 40.4158 50.6 40.8211 49.896C41.2478 49.1707 41.9305 48.5947 42.8691 48.168C43.8291 47.72 45.1091 47.496 46.7091 47.496H52.5011V49.192H46.7731C45.1518 49.192 44.0211 49.48 43.3811 50.056C42.7625 50.632 42.4531 51.3467 42.4531 52.2C42.4531 53.16 42.8265 53.928 43.5731 54.504C44.3198 55.08 45.3651 55.368 46.7091 55.368C47.9891 55.368 49.0878 55.08 50.0051 54.504C50.9438 53.9067 51.6265 53.0533 52.0531 51.944L52.5651 53.512C52.1385 54.6213 51.3918 55.5067 50.3251 56.168C49.2798 56.8293 47.9571 57.16 46.3571 57.16ZM67.4721 57.16C65.8081 57.16 64.3148 56.7973 62.9921 56.072C61.6908 55.3253 60.6668 54.312 59.9201 53.032C59.1735 51.7307 58.8001 50.248 58.8001 48.584C58.8001 46.8987 59.1735 45.416 59.9201 44.136C60.6668 42.856 61.6908 41.8533 62.9921 41.128C64.3148 40.4027 65.8081 40.04 67.4721 40.04C68.9015 40.04 70.1921 40.3173 71.3441 40.872C72.4961 41.4267 73.4028 42.2587 74.0641 43.368L72.3681 44.52C71.7921 43.6667 71.0775 43.0373 70.2241 42.632C69.3708 42.2267 68.4428 42.024 67.4401 42.024C66.2455 42.024 65.1681 42.3013 64.2081 42.856C63.2481 43.3893 62.4908 44.1467 61.9361 45.128C61.3815 46.1093 61.1041 47.2613 61.1041 48.584C61.1041 49.9067 61.3815 51.0587 61.9361 52.04C62.4908 53.0213 63.2481 53.7893 64.2081 54.344C65.1681 54.8773 66.2455 55.144 67.4401 55.144C68.4428 55.144 69.3708 54.9413 70.2241 54.536C71.0775 54.1307 71.7921 53.512 72.3681 52.68L74.0641 53.832C73.4028 54.92 72.4961 55.752 71.3441 56.328C70.1921 56.8827 68.9015 57.16 67.4721 57.16ZM80.0694 52.648L80.1334 49.736L90.5974 40.2H93.3814L85.9894 47.272L84.7094 48.36L80.0694 52.648ZM78.2774 57V33.256H80.5494V57H78.2774ZM91.3014 57L84.2934 48.264L85.7654 46.504L94.0854 57H91.3014ZM105.918 57.16C104.467 57.16 103.155 56.8293 101.982 56.168C100.809 55.4853 99.8701 54.5147 99.1661 53.256C98.4835 51.976 98.1421 50.4187 98.1421 48.584C98.1421 46.7493 98.4835 45.2027 99.1661 43.944C99.8488 42.664 100.777 41.6933 101.95 41.032C103.123 40.3707 104.446 40.04 105.918 40.04C107.518 40.04 108.947 40.4027 110.206 41.128C111.486 41.832 112.489 42.8347 113.214 44.136C113.939 45.416 114.302 46.8987 114.302 48.584C114.302 50.2907 113.939 51.784 113.214 53.064C112.489 54.344 111.486 55.3467 110.206 56.072C108.947 56.7973 107.518 57.16 105.918 57.16ZM97.2461 63.208V40.2H99.4221V45.256L99.1981 48.616L99.5181 52.008V63.208H97.2461ZM105.758 55.144C106.953 55.144 108.019 54.8773 108.958 54.344C109.897 53.7893 110.643 53.0213 111.198 52.04C111.753 51.0373 112.03 49.8853 112.03 48.584C112.03 47.2827 111.753 46.1413 111.198 45.16C110.643 44.1787 109.897 43.4107 108.958 42.856C108.019 42.3013 106.953 42.024 105.758 42.024C104.563 42.024 103.486 42.3013 102.526 42.856C101.587 43.4107 100.841 44.1787 100.286 45.16C99.7528 46.1413 99.4861 47.2827 99.4861 48.584C99.4861 49.8853 99.7528 51.0373 100.286 52.04C100.841 53.0213 101.587 53.7893 102.526 54.344C103.486 54.8773 104.563 55.144 105.758 55.144ZM129.368 57V53.288L129.272 52.68V46.472C129.272 45.0427 128.867 43.944 128.056 43.176C127.267 42.408 126.083 42.024 124.504 42.024C123.416 42.024 122.381 42.2053 121.4 42.568C120.419 42.9307 119.587 43.4107 118.904 44.008L117.88 42.312C118.733 41.5867 119.757 41.032 120.952 40.648C122.147 40.2427 123.405 40.04 124.728 40.04C126.904 40.04 128.579 40.584 129.752 41.672C130.947 42.7387 131.544 44.3707 131.544 46.568V57H129.368ZM123.576 57.16C122.317 57.16 121.219 56.9573 120.28 56.552C119.363 56.1253 118.659 55.5493 118.168 54.824C117.677 54.0773 117.432 53.224 117.432 52.264C117.432 51.3893 117.635 50.6 118.04 49.896C118.467 49.1707 119.149 48.5947 120.088 48.168C121.048 47.72 122.328 47.496 123.928 47.496H129.72V49.192H123.992C122.371 49.192 121.24 49.48 120.6 50.056C119.981 50.632 119.672 51.3467 119.672 52.2C119.672 53.16 120.045 53.928 120.792 54.504C121.539 55.08 122.584 55.368 123.928 55.368C125.208 55.368 126.307 55.08 127.224 54.504C128.163 53.9067 128.845 53.0533 129.272 51.944L129.784 53.512C129.357 54.6213 128.611 55.5067 127.544 56.168C126.499 56.8293 125.176 57.16 123.576 57.16ZM144.691 57.16C143.027 57.16 141.534 56.7973 140.211 56.072C138.91 55.3253 137.886 54.312 137.139 53.032C136.392 51.7307 136.019 50.248 136.019 48.584C136.019 46.8987 136.392 45.416 137.139 44.136C137.886 42.856 138.91 41.8533 140.211 41.128C141.534 40.4027 143.027 40.04 144.691 40.04C146.12 40.04 147.411 40.3173 148.563 40.872C149.715 41.4267 150.622 42.2587 151.283 43.368L149.587 44.52C149.011 43.6667 148.296 43.0373 147.443 42.632C146.59 42.2267 145.662 42.024 144.659 42.024C143.464 42.024 142.387 42.3013 141.427 42.856C140.467 43.3893 139.71 44.1467 139.155 45.128C138.6 46.1093 138.323 47.2613 138.323 48.584C138.323 49.9067 138.6 51.0587 139.155 52.04C139.71 53.0213 140.467 53.7893 141.427 54.344C142.387 54.8773 143.464 55.144 144.659 55.144C145.662 55.144 146.59 54.9413 147.443 54.536C148.296 54.1307 149.011 53.512 149.587 52.68L151.283 53.832C150.622 54.92 149.715 55.752 148.563 56.328C147.411 56.8827 146.12 57.16 144.691 57.16ZM157.288 52.648L157.352 49.736L167.816 40.2H170.6L163.208 47.272L161.928 48.36L157.288 52.648ZM155.496 57V33.256H157.768V57H155.496ZM168.52 57L161.512 48.264L162.984 46.504L171.304 57H168.52Z" fill="white"/>
<defs>
<clipPath id="clip0_11_168">
<rect width="64" height="64" fill="white"/>
</clipPath>
</defs>
</svg>
