<svg aria-hidden="true" style="position:absolute;width:0;height:0;overflow:hidden" xmlns="http://www.w3.org/2000/svg">
  <defs>
   <symbol id="eye" viewBox="0 0 32 32">
      <path d="M16 6A17.92 17.92 0 0 0 0 16c2.97 5.94 9.02 10 16 10s13.03-4.06 16-10A17.92 17.92 0 0 0 16 6zm7.89 5.3c1.88 1.2 3.47 2.8 4.67 4.7-1.2 1.9-2.8 3.5-4.67 4.7a14.64 14.64 0 0 1-15.78 0A15.21 15.21 0 0 1 3.44 16a15.22 15.22 0 0 1 5.04-4.92A7.98 7.98 0 0 0 16 21.8a8 8 0 0 0 7.52-10.73l.37.22zM16 13a3 3 0 1 1-6 0 3 3 0 0 1 6 0z"/>
    </symbol>
    <symbol id="eye-blocked" viewBox="0 0 32 32">
      <path d="M29.56.44a1.5 1.5 0 0 0-2.12 0l-6.32 6.32C19.5 6.26 17.78 6 16 6A17.92 17.92 0 0 0 0 16a18.32 18.32 0 0 0 5.4 6.47L.45 27.44a1.5 1.5 0 1 0 2.12 2.12l27-27a1.5 1.5 0 0 0 0-2.12zM13 10a3 3 0 0 1 2.84 2.04l-3.8 3.8A3 3 0 0 1 13 10zm-9.56 6a15.22 15.22 0 0 1 5.04-4.92 7.98 7.98 0 0 0 .98 7.34l-1.9 1.9A15.22 15.22 0 0 1 3.43 16zM24 13.81c0-.85-.13-1.66-.38-2.43L13.57 21.43A8 8 0 0 0 24 13.82z"/>
      <path d="m25.94 9.06-2.17 2.17.12.07c1.88 1.2 3.47 2.8 4.67 4.7-1.2 1.9-2.8 3.5-4.67 4.7a14.64 14.64 0 0 1-11.45 1.86l-2.4 2.4C11.9 25.64 13.9 26 16 26c6.98 0 13.03-4.06 16-10a18.3 18.3 0 0 0-6.06-6.94z"/>
    </symbol>
  </defs>
</svg>